<mxfile host="app.diagrams.net" agent="Mozilla/5.0 (Windows NT 10.0; Win64; x64) AppleWebKit/537.36 (KHTML, like Gecko) Chrome/140.0.0.0 Safari/537.36" version="28.2.1">
  <diagram name="第 1 页" id="zKZKXXlF8URifA5jv90s">
    <mxGraphModel dx="1130" dy="657" grid="1" gridSize="10" guides="1" tooltips="1" connect="1" arrows="1" fold="1" page="1" pageScale="1" pageWidth="827" pageHeight="1169" math="0" shadow="0">
      <root>
        <mxCell id="0" />
        <mxCell id="1" parent="0" />
        <mxCell id="wsMqK2-wO-HTcuDtVl3d-1" value="&lt;b&gt;&lt;font style=&quot;font-size: 16px;&quot;&gt;生产计划&lt;/font&gt;&lt;/b&gt;" style="rounded=0;whiteSpace=wrap;html=1;" vertex="1" parent="1">
          <mxGeometry x="60" y="220" width="130" height="60" as="geometry" />
        </mxCell>
        <mxCell id="wsMqK2-wO-HTcuDtVl3d-2" value="" style="rounded=1;whiteSpace=wrap;html=1;strokeWidth=2;fillWeight=4;hachureGap=8;hachureAngle=45;fillColor=#1ba1e2;sketch=1;" vertex="1" parent="1">
          <mxGeometry x="250" y="150" width="190" height="380" as="geometry" />
        </mxCell>
        <mxCell id="wsMqK2-wO-HTcuDtVl3d-3" value="&lt;b&gt;&lt;font style=&quot;font-size: 18px;&quot;&gt;物料需求预测&lt;/font&gt;&lt;/b&gt;" style="rounded=0;whiteSpace=wrap;html=1;" vertex="1" parent="1">
          <mxGeometry x="284" y="220" width="130" height="60" as="geometry" />
        </mxCell>
        <mxCell id="wsMqK2-wO-HTcuDtVl3d-4" value="" style="edgeStyle=orthogonalEdgeStyle;rounded=0;orthogonalLoop=1;jettySize=auto;html=1;" edge="1" parent="1" source="wsMqK2-wO-HTcuDtVl3d-1" target="wsMqK2-wO-HTcuDtVl3d-3">
          <mxGeometry relative="1" as="geometry" />
        </mxCell>
        <mxCell id="wsMqK2-wO-HTcuDtVl3d-5" value="&lt;font style=&quot;font-size: 18px;&quot;&gt;&lt;b&gt;物料消耗预测&lt;/b&gt;&lt;/font&gt;" style="rounded=0;whiteSpace=wrap;html=1;" vertex="1" parent="1">
          <mxGeometry x="284" y="420" width="130" height="60" as="geometry" />
        </mxCell>
        <mxCell id="wsMqK2-wO-HTcuDtVl3d-7" value="" style="edgeStyle=orthogonalEdgeStyle;rounded=0;orthogonalLoop=1;jettySize=auto;html=1;" edge="1" parent="1" source="wsMqK2-wO-HTcuDtVl3d-6" target="wsMqK2-wO-HTcuDtVl3d-5">
          <mxGeometry relative="1" as="geometry" />
        </mxCell>
        <mxCell id="wsMqK2-wO-HTcuDtVl3d-10" value="&lt;b&gt;&lt;font style=&quot;font-size: 18px;&quot;&gt;库存动态调整模型&lt;/font&gt;&lt;/b&gt;" style="text;html=1;align=center;verticalAlign=middle;whiteSpace=wrap;rounded=0;fontColor=#000000;" vertex="1" parent="1">
          <mxGeometry x="270" y="170" width="150" height="30" as="geometry" />
        </mxCell>
        <mxCell id="wsMqK2-wO-HTcuDtVl3d-12" value="" style="edgeStyle=orthogonalEdgeStyle;rounded=0;orthogonalLoop=1;jettySize=auto;html=1;" edge="1" parent="1" source="wsMqK2-wO-HTcuDtVl3d-3" target="wsMqK2-wO-HTcuDtVl3d-6">
          <mxGeometry relative="1" as="geometry">
            <mxPoint x="349" y="280" as="sourcePoint" />
            <mxPoint x="355" y="460" as="targetPoint" />
            <Array as="points" />
          </mxGeometry>
        </mxCell>
        <mxCell id="wsMqK2-wO-HTcuDtVl3d-6" value="&lt;span style=&quot;font-weight: 600; color: rgb(15, 17, 21); font-family: quote-cjk-patch, Inter, system-ui, -apple-system, BlinkMacSystemFont, &amp;quot;Segoe UI&amp;quot;, Roboto, Oxygen, Ubuntu, Cantarell, &amp;quot;Open Sans&amp;quot;, &amp;quot;Helvetica Neue&amp;quot;, sans-serif; text-align: left; background-color: rgb(255, 255, 255);&quot;&gt;&lt;font style=&quot;font-size: 18px;&quot;&gt;采购和配送计划&lt;/font&gt;&lt;/span&gt;" style="rounded=0;whiteSpace=wrap;html=1;" vertex="1" parent="1">
          <mxGeometry x="284" y="320" width="130" height="60" as="geometry" />
        </mxCell>
      </root>
    </mxGraphModel>
  </diagram>
</mxfile>
